<svg width="562" height="840" viewBox="0 0 562 840" fill="none" xmlns="http://www.w3.org/2000/svg">
<path d="M78.3069 47.0522C194.993 -66.3616 401.373 46.3243 521.174 162.766C640.976 279.208 457.594 525.245 466.887 678.646C469.423 720.508 450.251 752.145 413.889 771.814C381.777 789.184 388.706 763.554 360.891 748.266C326.439 729.33 300.186 866.7 272.394 834.266C250.6 808.832 222.508 798.833 199.896 774.158C149.898 719.599 146.707 785.188 90.3997 759.528C85.4522 757.273 82.2654 756.02 80.3154 755.364C75.6937 753.808 78.0188 755.604 80.3154 755.364C82.8659 755.097 85.3811 752.319 78.3069 739.649C-5.80746 589.003 -44.6098 166.522 78.3069 47.0522Z" fill="#FF0808"/>
</svg>
